<?xml version="1.0" standalone="no"?>
<!DOCTYPE svg PUBLIC "-//W3C//DTD SVG 20010904//EN"
 "http://www.w3.org/TR/2001/REC-SVG-20010904/DTD/svg10.dtd">
<svg version="1.0" xmlns="http://www.w3.org/2000/svg"
 width="271.000000pt" height="500.000000pt" viewBox="0 0 271.000000 500.000000"
 preserveAspectRatio="xMidYMid meet">

<g transform="translate(0.000000,500.000000) scale(0.100000,-0.100000)"
stroke="none">
<path d="M1252 4969 c-75 -13 -193 -64 -260 -114 -163 -119 -272 -336 -272
-539 -1 -283 -45 -506 -142 -716 -33 -72 -54 -107 -156 -264 -273 -421 -407
-976 -372 -1543 5 -92 10 -177 10 -187 0 -11 2 -17 5 -15 2 3 9 68 15 145 30
407 110 721 265 1039 114 234 234 403 397 561 127 123 239 187 408 234 126 35
310 33 434 -4 118 -36 203 -78 295 -147 310 -232 584 -714 691 -1214 36 -167
67 -413 73 -565 4 -134 27 132 27 321 0 615 -170 1138 -504 1549 -33 41 -111
125 -173 186 -136 134 -137 136 -69 277 47 98 76 206 76 285 0 39 5 54 28 79
65 72 180 141 330 198 41 15 76 33 78 40 10 24 -26 74 -71 101 -79 46 -177 68
-372 84 -128 10 -171 25 -271 97 -144 102 -301 140 -470 112z" fill="#5076F6"/>
<path d="M1123 2554 c-51 -25 -58 -57 -58 -259 0 -263 5 -268 271 -263 147 3
165 5 191 24 48 36 53 55 53 242 0 270 -2 272 -262 272 -127 0 -170 -4 -195
-16z m321 -100 c13 -12 16 -41 16 -153 0 -93 -4 -141 -12 -149 -17 -17 -239
-17 -256 0 -8 8 -12 56 -12 149 0 172 -3 169 147 169 79 0 105 -3 117 -16z" fill="#FFFFFF"/>
<path d="M550 2300 l0 -260 220 0 220 0 0 55 0 55 -160 0 -160 0 0 205 0 205
-60 0 -60 0 0 -260z" fill="#FFFFFF"/>
<path d="M1728 2545 c-64 -35 -77 -181 -20 -238 25 -25 45 -31 168 -53 76 -13
145 -26 152 -29 15 -6 16 -57 0 -73 -8 -8 -64 -12 -185 -12 l-173 0 0 -50 0
-50 195 0 c226 0 256 7 280 64 17 40 20 123 5 160 -16 42 -61 61 -202 85 -73
13 -139 28 -145 33 -16 13 -17 50 -1 66 8 8 58 12 158 12 164 0 180 6 180 68
l0 32 -192 0 c-149 -1 -199 -4 -220 -15z" fill="#FFFFFF"/>
<path d="M360 2428 c-47 -121 -78 -228 -103 -358 -19 -101 -22 -146 -21 -370
0 -236 2 -264 27 -381 90 -426 293 -771 571 -967 64 -45 75 -57 62 -64 -44
-25 -163 -57 -247 -68 -173 -22 -277 -40 -341 -60 -74 -23 -165 -75 -186 -108
l-14 -22 474 0 475 0 26 26 c29 29 32 38 42 105 l6 46 57 -13 c74 -18 271 -17
345 0 l57 14 0 -31 c0 -53 19 -105 47 -127 25 -19 37 -20 494 -20 524 0 516
-1 415 65 -73 49 -173 82 -303 100 -248 35 -301 45 -365 71 -38 14 -66 30 -63
35 3 5 32 25 63 46 31 21 100 81 152 133 289 288 460 744 460 1226 0 226 -45
494 -115 678 -28 73 -60 137 -51 101 37 -149 48 -536 20 -735 -79 -585 -385
-1056 -766 -1184 -164 -56 -380 -41 -533 36 -242 123 -462 405 -578 743 -115
336 -146 748 -82 1090 8 38 12 71 10 73 -2 2 -18 -34 -35 -80z" fill="#5076F6"/>
<path d="M870 1260 l0 -260 221 0 220 0 -3 53 -3 52 -162 3 -163 2 0 205 0
205 -55 0 -55 0 0 -260z" fill="#FFFFFF"/>
<path d="M1438 1504 c-51 -27 -58 -56 -58 -244 0 -261 -1 -260 275 -260 l185
0 0 50 0 50 -151 0 c-84 0 -159 5 -170 10 -17 10 -19 23 -19 150 0 127 2 140
19 150 11 5 80 10 154 10 150 0 167 7 167 68 l0 32 -187 0 c-147 -1 -194 -4
-215 -16z" fill="#FFFFFF"/>
</g>
</svg>
